<?xml version="1.0" encoding="iso-8859-1" standalone="no"?> 
<?xml-stylesheet href="limgrafieken.css" type="text/css"?> 
<svg xmlns="http://www.w3.org/2000/svg" xmlns:xlink="http://www.w3.org/1999/xlink" width="212.16179pt" height="162.3873pt" viewBox="-28.14278 47.61865 212.16179 162.3873 "> 
<g transform="translate(0, 210.00595 ) scale(1,-1) translate(0,-47.61865 )"> 
        
<g>
 <g stroke="rgb(0.0%,0.0%,0.0%)">
 <g fill="rgb(0.0%,0.0%,0.0%)">
 <g stroke-width="0.4pt">
 <g>
 </g>
 <g>
 <g>
 <g>
 <g>
 <g stroke-width="0.2pt">
 <g stroke="rgb(50.0%,50.0%,50.0%)">
 <g fill="rgb(50.0%,50.0%,50.0%)">
 <path d=" M  -16.19873 126.67847 L  -16.19873 130.94612 M  16.19873 126.67847 L  16.19873 130.94612 M  48.59619 126.67847 L  48.59619 130.94612 M  113.39111 126.67847 L  113.39111 130.94612 M  145.78857 126.67847 L  145.78857 130.94612 M  178.18604 126.67847 L  178.18604 130.94612  " style="fill:none"/>
 </g>
 </g>
 </g>
 </g>
 </g>
 <g>
 <g>
 <g stroke-width="0.2pt">
 <g stroke="rgb(50.0%,50.0%,50.0%)">
 <g fill="rgb(50.0%,50.0%,50.0%)">
 <path d=" M  78.85982 64.01738 L  83.12747 64.01738 M  78.85982 96.41484 L  83.12747 96.41484 M  78.85982 161.20976 L  83.12747 161.20976 M  78.85982 193.60722 L  83.12747 193.60722  " style="fill:none"/>
 </g>
 </g>
 </g>
 </g>
 </g>
 <path d=" M  -16.50084 128.8123 L  176.48396 128.8123  " style="fill:none"/>
 <g>
 <g transform="matrix(1.0,0.0,0.0,1.0,176.48396,128.8123)">
 <g>
 <path d=" M  1.99997 0.0 L  -1.19998 1.59998 L  0.0 0.0 L  -1.19998 -1.59998  " style="stroke:none"/>
 </g>
  </g>
 </g>
 <path d=" M  80.99365 47.81865 L  80.99365 207.80598  " style="fill:none"/>
 <g>
 <g transform="matrix(0.0,1.0,-1.0,0.0,80.99365,207.80598)">
 <g>
 <path d=" M  1.99997 0.0 L  -1.19998 1.59998 L  0.0 0.0 L  -1.19998 -1.59998  " style="stroke:none"/>
 </g>
  </g>
 </g>
 <g>
 <g>
 <g transform="matrix(1.0,0.0,0.0,1.0,-24.8098,116.70105)">
 <g fill="rgb(0.0%,0.0%,0.0%)">
 <text style="stroke:none" transform="scale(1,-1) translate(8.61107,0)" text-anchor="middle"  font-size="10"> 
 − 6</text> 
</g>
 </g>
 </g>
 </g>
 <g>
 <g>
 <g transform="matrix(1.0,0.0,0.0,1.0,7.58766,116.70105)">
 <g fill="rgb(0.0%,0.0%,0.0%)">
 <text style="stroke:none" transform="scale(1,-1) translate(8.61107,0)" text-anchor="middle"  font-size="10"> 
 − 4</text> 
</g>
 </g>
 </g>
 </g>
 <g>
 <g>
 <g transform="matrix(1.0,0.0,0.0,1.0,39.98512,116.70105)">
 <g fill="rgb(0.0%,0.0%,0.0%)">
 <text style="stroke:none" transform="scale(1,-1) translate(8.61107,0)" text-anchor="middle"  font-size="10"> 
 − 2</text> 
</g>
 </g>
 </g>
 </g>
 <g>
 <g>
 <g transform="matrix(1.0,0.0,0.0,1.0,110.89111,116.70107)">
 <g fill="rgb(0.0%,0.0%,0.0%)">
 <text style="stroke:none" transform="scale(1,-1) translate(2.5,0)" text-anchor="middle"  font-size="10"> 
2</text> 
</g>
 </g>
 </g>
 </g>
 <g>
 <g>
 <g transform="matrix(1.0,0.0,0.0,1.0,143.28857,116.70107)">
 <g fill="rgb(0.0%,0.0%,0.0%)">
 <text style="stroke:none" transform="scale(1,-1) translate(2.5,0)" text-anchor="middle"  font-size="10"> 
4</text> 
</g>
 </g>
 </g>
 </g>
 <g>
 <g>
 <g transform="matrix(1.0,0.0,0.0,1.0,175.68604,116.70107)">
 <g fill="rgb(0.0%,0.0%,0.0%)">
 <text style="stroke:none" transform="scale(1,-1) translate(2.5,0)" text-anchor="middle"  font-size="10"> 
6</text> 
</g>
 </g>
 </g>
 </g>
 <g>
 <g>
 <g transform="matrix(1.0,0.0,0.0,1.0,58.1047,61.21182)">
 <g fill="rgb(0.0%,0.0%,0.0%)">
 <text style="stroke:none" transform="scale(1,-1) translate(8.61107,0)" text-anchor="middle"  font-size="10"> 
 − 4</text> 
</g>
 </g>
 </g>
 </g>
 <g>
 <g>
 <g transform="matrix(1.0,0.0,0.0,1.0,58.1047,93.60928)">
 <g fill="rgb(0.0%,0.0%,0.0%)">
 <text style="stroke:none" transform="scale(1,-1) translate(8.61107,0)" text-anchor="middle"  font-size="10"> 
 − 2</text> 
</g>
 </g>
 </g>
 </g>
 <g>
 <g>
 <g transform="matrix(1.0,0.0,0.0,1.0,70.32684,157.98755)">
 <g fill="rgb(0.0%,0.0%,0.0%)">
 <text style="stroke:none" transform="scale(1,-1) translate(2.5,0)" text-anchor="middle"  font-size="10"> 
2</text> 
</g>
 </g>
 </g>
 </g>
 <g>
 <g>
 <g transform="matrix(1.0,0.0,0.0,1.0,70.32684,190.38501)">
 <g fill="rgb(0.0%,0.0%,0.0%)">
 <text style="stroke:none" transform="scale(1,-1) translate(2.5,0)" text-anchor="middle"  font-size="10"> 
4</text> 
</g>
 </g>
 </g>
 </g>
 <g>
 <g>
 <g>
 <g stroke-width="0.2pt">
 <g stroke="rgb(50.0%,50.0%,50.0%)">
 <g fill="rgb(50.0%,50.0%,50.0%)">
 <path d=" M  78.85982 128.8123 L  83.12747 128.8123  " style="fill:none"/>
 </g>
 </g>
 </g>
 </g>
 </g>
 <g>
 <g>
 <g transform="matrix(1.0,0.0,0.0,1.0,70.32684,125.59009)">
 <g fill="rgb(0.0%,0.0%,0.0%)">
 <text style="stroke:none" transform="scale(1,-1) translate(2.5,0)" text-anchor="middle"  font-size="10"> 
0</text> 
</g>
 </g>
 </g>
 </g>
 </g>
 <clipPath id="pgfcp1"> <path d=" M  -16.50084 47.81865 L  178.48393 47.81865 L  178.48393 209.80595 L  -16.50084 209.80595 Z  "/>
</clipPath>
 <g clip-path="url(#pgfcp1)">
 <g>
 <g stroke="rgb(0.0%,0.0%,100.0%)">
 <g fill="rgb(0.0%,0.0%,100.0%)">
 <path d=" M  0.0 125.57256 L  0.81398 125.53967 L  1.62796 125.50613 L  2.44196 125.4718 L  3.25594 125.43697 L  4.06992 125.401 L  4.88391 125.36472 L  5.69789 125.32747 L  6.51187 125.2894 L  7.32587 125.2502 L  8.13985 125.21051 L  8.95383 125.17001 L  9.76782 125.12822 L  10.5818 125.08562 L  11.39578 125.0422 L  12.20978 124.9975 L  13.02376 124.95166 L  13.83774 124.905 L  14.65173 124.85706 L  15.46571 124.80782 L  16.2797 124.75775 L  17.09369 124.70575 L  17.90767 124.65295 L  18.72165 124.59853 L  19.53564 124.54263 L  20.34962 124.48529 L  21.1636 124.4265 L  21.9776 124.36607 L  22.79158 124.30386 L  23.60556 124.23988 L  24.41956 124.17412 L  25.23354 124.1064 L  26.04752 124.03659 L  26.86151 123.965 L  27.67549 123.8908 L  28.48947 123.81467 L  29.30347 123.73578 L  30.11745 123.65479 L  30.93143 123.57071 L  31.74542 123.4842 L  32.5594 123.39479 L  33.37338 123.30214 L  34.18738 123.20624 L  35.00136 123.1071 L  35.81534 123.00424 L  36.62933 122.89766 L  37.44331 122.78717 L  38.2573 122.67233 L  39.07129 122.5531 L  39.88527 122.42903 L  40.69925 122.30025 L  41.51324 122.16595 L  42.32722 122.02617 L  43.1412 121.88005 L  43.9552 121.72778 L  44.76918 121.56871 L  45.58316 121.40234 L  46.39716 121.22772 L  47.21114 121.04517 L  48.02512 120.85338 L  48.83911 120.65186 L  49.65309 120.43999 L  50.46707 120.2166 L  51.28107 119.98108 L  52.09505 119.73242 L  52.90903 119.4692 L  53.72302 119.19025 L  54.537 118.8943 L  55.35098 118.57956 L  56.16498 118.24393 L  56.97896 117.88577 L  57.79294 117.50233 L  58.60693 117.09106 L  59.42091 116.64883 L  60.2349 116.1721 L  61.04889 115.65634 L  61.86287 115.09619 L  62.67685 114.48663 L  63.49084 113.82054 L  64.30482 113.08932 L  65.1188 112.28311 L  65.9328 111.38895 L  66.74678 110.39435 L  67.56076 109.27824 L  68.37476 108.01799 L  69.18874 106.5844 L  70.00273 104.93861 L  70.81671 103.0304 L  71.63069 100.7885 L  72.44469 98.11894 L  73.25867 94.8873 L  74.07266 90.89917 L  74.88664 85.84355 L  75.70062 79.23608 L  76.51462 70.22797 L  77.3286 57.21553 L  78.1426 36.77759 L  78.95657 0.0 M  83.0265 257.8935 L  83.84048 220.98308 L  84.65448 200.49007 L  85.46846 187.4517 L  86.28246 178.42738 L  87.09644 171.80858 L  87.91042 166.74811 L  88.72441 162.7535 L  89.53839 159.52185 L  90.35239 156.84906 L  91.16637 154.60716 L  91.98035 152.69733 L  92.79434 151.0483 L  93.60832 149.6147 L  94.42232 148.35445 L  95.2363 147.23674 L  96.05028 146.24051 L  96.86427 145.34634 L  97.67825 144.539 L  98.49225 143.80746 L  99.30623 143.1412 L  100.12021 142.53133 L  100.9342 141.97133 L  101.74818 141.45525 L  102.56216 140.9782 L  103.37616 140.53548 L  104.19014 140.12436 L  105.00412 139.74077 L  105.81812 139.38246 L  106.6321 139.04665 L  107.44608 138.73192 L  108.26007 138.4358 L  109.07405 138.1567 L  109.88803 137.89346 L  110.70203 137.64482 L  111.516 137.40929 L  112.32999 137.18575 L  113.14398 136.97403 L  113.95796 136.77235 L  114.77194 136.5804 L  115.58594 136.39784 L  116.39992 136.22322 L  117.2139 136.05702 L  118.0279 135.89763 L  118.84187 135.74536 L  119.65585 135.59924 L  120.46985 135.45929 L  121.28383 135.325 L  122.09781 135.19606 L  122.9118 135.07198 L  123.72578 134.95274 L  124.53976 134.8379 L  125.35376 134.72743 L  126.16774 134.62083 L  126.98172 134.51797 L  127.79572 134.419 L  128.6097 134.3231 L  129.42368 134.23029 L  130.23767 134.14087 L  131.05165 134.05437 L  131.86563 133.97029 L  132.67963 133.8893 L  133.4936 133.81041 L  134.30759 133.73396 L  135.12158 133.6601 L  135.93556 133.58817 L  136.74954 133.51851 L  137.56354 133.4508 L  138.37752 133.38504 L  139.1915 133.32121 L  140.0055 133.25885 L  140.81947 133.19843 L  141.63345 133.13963 L  142.44745 133.08228 L  143.26143 133.0264 L  144.07541 132.97197 L  144.8894 132.91884 L  145.70338 132.86716 L  146.51736 132.81694 L  147.33136 132.76787 L  148.14534 132.71991 L  148.95932 132.6731 L  149.77332 132.62743 L  150.5873 132.58272 L  151.40128 132.53914 L  152.21527 132.4967 L  153.02925 132.45491 L  153.84323 132.41441 L  154.65723 132.3744 L  155.4712 132.33553 L  156.28519 132.29745 L  157.09918 132.26004 L  157.91316 132.22359 L  158.72714 132.18796 L  159.54114 132.1528 L  160.35512 132.11877 L  161.1691 132.08508 L  161.9831 132.0522  " style="fill:none"/>
 </g>
 </g>
 </g>
 </g>
 </g>
 <g>
 <g fill="rgb(100.0%,100.0%,100.0%)">
 <g stroke="rgb(0.0%,0.0%,0.0%)">
 <g>
 <g fill="rgb(100.0%,100.0%,100.0%)">
 <g stroke="rgb(0.0%,0.0%,0.0%)">
 <path d=" M  131.19629 189.36557 h  43.1871 v  16.99994 h  -43.1871 Z  " />
 </g>
 </g>
 </g>
 <g>
 <g transform="matrix(1.0,0.0,0.0,1.0,134.19629,197.86554)">
 <g fill="rgb(0.0%,0.0%,0.0%)">
 <text style="stroke:none" transform="scale(1,-1) translate(18.59355,0)" text-anchor="middle"  font-size="10"> 
<g>
 <g fill="rgb(0.0%,0.0%,0.0%)">
 <g>
 <g stroke="rgb(0.0%,0.0%,100.0%)">
 <g fill="rgb(0.0%,0.0%,100.0%)">
 <path d=" M  0.0 0.0 L  8.5359 0.0 L  17.07182 0.0  " style="fill:none"/>
 </g>
 </g>
 </g>
 </g>
 </g>
    <g>
 <g>
 <g>
 <g transform="matrix(1.0,0.0,0.0,1.0,-7.85765,-3.00003)">
 <g fill="rgb(0.0%,0.0%,0.0%)">
 <text style="stroke:none" transform="scale(1,-1) translate(7.85765,0)" text-anchor="middle"  font-size="10"> 
1∕x</text> 
</g>
 </g>
 </g>
 </g>
 </g>
 </text> 
</g>
 </g>
 </g>
 </g>
 </g>
 </g>
 </g>
 </g>
 </g>
 </g>
 </g>
                                     </g> 
</svg> 
