<?xml version="1.0" encoding="iso-8859-1" standalone="no"?> 
<?xml-stylesheet href="limgrafieken.css" type="text/css"?> 
<svg xmlns="http://www.w3.org/2000/svg" xmlns:xlink="http://www.w3.org/1999/xlink" width="212.16179pt" height="162.3873pt" viewBox="-28.14278 30.70313 212.16179 162.3873 "> 
<g transform="translate(0, 193.09042 ) scale(1,-1) translate(0,-30.70313 )"> 
          
<g>
 <g stroke="rgb(0.0%,0.0%,0.0%)">
 <g fill="rgb(0.0%,0.0%,0.0%)">
 <g stroke-width="0.4pt">
 <g>
 </g>
 <g>
 <g>
 <g>
 <g>
 <g stroke-width="0.2pt">
 <g stroke="rgb(50.0%,50.0%,50.0%)">
 <g fill="rgb(50.0%,50.0%,50.0%)">
 <path d=" M  -16.19873 109.76294 L  -16.19873 114.03061 M  16.19873 109.76294 L  16.19873 114.03061 M  48.59619 109.76294 L  48.59619 114.03061 M  113.39111 109.76294 L  113.39111 114.03061 M  145.78857 109.76294 L  145.78857 114.03061 M  178.18604 109.76294 L  178.18604 114.03061  " style="fill:none"/>
 </g>
 </g>
 </g>
 </g>
 </g>
 <g>
 <g>
 <g stroke-width="0.2pt">
 <g stroke="rgb(50.0%,50.0%,50.0%)">
 <g fill="rgb(50.0%,50.0%,50.0%)">
 <path d=" M  78.85982 47.10185 L  83.12747 47.10185 M  78.85982 79.49931 L  83.12747 79.49931 M  78.85982 144.29424 L  83.12747 144.29424 M  78.85982 176.6917 L  83.12747 176.6917  " style="fill:none"/>
 </g>
 </g>
 </g>
 </g>
 </g>
 <path d=" M  -16.49873 111.89677 L  176.48546 111.89677  " style="fill:none"/>
 <g>
 <g transform="matrix(1.0,0.0,0.0,1.0,176.48546,111.89677)">
 <g>
 <path d=" M  1.99997 0.0 L  -1.19998 1.59998 L  0.0 0.0 L  -1.19998 -1.59998  " style="stroke:none"/>
 </g>
  </g>
 </g>
 <path d=" M  80.99365 30.90312 L  80.99365 190.89046  " style="fill:none"/>
 <g>
 <g transform="matrix(0.0,1.0,-1.0,0.0,80.99365,190.89046)">
 <g>
 <path d=" M  1.99997 0.0 L  -1.19998 1.59998 L  0.0 0.0 L  -1.19998 -1.59998  " style="stroke:none"/>
 </g>
  </g>
 </g>
 <g>
 <g>
 <g transform="matrix(1.0,0.0,0.0,1.0,-24.8098,99.78552)">
 <g fill="rgb(0.0%,0.0%,0.0%)">
 <text style="stroke:none" transform="scale(1,-1) translate(8.61107,0)" text-anchor="middle"  font-size="10"> 
 − 6</text> 
</g>
 </g>
 </g>
 </g>
 <g>
 <g>
 <g transform="matrix(1.0,0.0,0.0,1.0,7.58766,99.78552)">
 <g fill="rgb(0.0%,0.0%,0.0%)">
 <text style="stroke:none" transform="scale(1,-1) translate(8.61107,0)" text-anchor="middle"  font-size="10"> 
 − 4</text> 
</g>
 </g>
 </g>
 </g>
 <g>
 <g>
 <g transform="matrix(1.0,0.0,0.0,1.0,39.98512,99.78552)">
 <g fill="rgb(0.0%,0.0%,0.0%)">
 <text style="stroke:none" transform="scale(1,-1) translate(8.61107,0)" text-anchor="middle"  font-size="10"> 
 − 2</text> 
</g>
 </g>
 </g>
 </g>
 <g>
 <g>
 <g transform="matrix(1.0,0.0,0.0,1.0,110.89111,99.78554)">
 <g fill="rgb(0.0%,0.0%,0.0%)">
 <text style="stroke:none" transform="scale(1,-1) translate(2.5,0)" text-anchor="middle"  font-size="10"> 
2</text> 
</g>
 </g>
 </g>
 </g>
 <g>
 <g>
 <g transform="matrix(1.0,0.0,0.0,1.0,143.28857,99.78554)">
 <g fill="rgb(0.0%,0.0%,0.0%)">
 <text style="stroke:none" transform="scale(1,-1) translate(2.5,0)" text-anchor="middle"  font-size="10"> 
4</text> 
</g>
 </g>
 </g>
 </g>
 <g>
 <g>
 <g transform="matrix(1.0,0.0,0.0,1.0,175.68604,99.78554)">
 <g fill="rgb(0.0%,0.0%,0.0%)">
 <text style="stroke:none" transform="scale(1,-1) translate(2.5,0)" text-anchor="middle"  font-size="10"> 
6</text> 
</g>
 </g>
 </g>
 </g>
 <g>
 <g>
 <g transform="matrix(1.0,0.0,0.0,1.0,58.1047,44.2963)">
 <g fill="rgb(0.0%,0.0%,0.0%)">
 <text style="stroke:none" transform="scale(1,-1) translate(8.61107,0)" text-anchor="middle"  font-size="10"> 
 − 4</text> 
</g>
 </g>
 </g>
 </g>
 <g>
 <g>
 <g transform="matrix(1.0,0.0,0.0,1.0,58.1047,76.69376)">
 <g fill="rgb(0.0%,0.0%,0.0%)">
 <text style="stroke:none" transform="scale(1,-1) translate(8.61107,0)" text-anchor="middle"  font-size="10"> 
 − 2</text> 
</g>
 </g>
 </g>
 </g>
 <g>
 <g>
 <g transform="matrix(1.0,0.0,0.0,1.0,70.32684,141.07202)">
 <g fill="rgb(0.0%,0.0%,0.0%)">
 <text style="stroke:none" transform="scale(1,-1) translate(2.5,0)" text-anchor="middle"  font-size="10"> 
2</text> 
</g>
 </g>
 </g>
 </g>
 <g>
 <g>
 <g transform="matrix(1.0,0.0,0.0,1.0,70.32684,173.46948)">
 <g fill="rgb(0.0%,0.0%,0.0%)">
 <text style="stroke:none" transform="scale(1,-1) translate(2.5,0)" text-anchor="middle"  font-size="10"> 
4</text> 
</g>
 </g>
 </g>
 </g>
 <g>
 <g>
 <g>
 <g stroke-width="0.2pt">
 <g stroke="rgb(50.0%,50.0%,50.0%)">
 <g fill="rgb(50.0%,50.0%,50.0%)">
 <path d=" M  78.85982 111.89677 L  83.12747 111.89677  " style="fill:none"/>
 </g>
 </g>
 </g>
 </g>
 </g>
 <g>
 <g>
 <g transform="matrix(1.0,0.0,0.0,1.0,70.32684,108.67456)">
 <g fill="rgb(0.0%,0.0%,0.0%)">
 <text style="stroke:none" transform="scale(1,-1) translate(2.5,0)" text-anchor="middle"  font-size="10"> 
0</text> 
</g>
 </g>
 </g>
 </g>
 </g>
 <clipPath id="pgfcp3"> <path d=" M  -16.49873 30.90312 L  178.48543 30.90312 L  178.48543 192.89043 L  -16.49873 192.89043 Z  "/>
</clipPath>
 <g clip-path="url(#pgfcp3)">
 <g>
 <g stroke-width="0.8pt">
 <g stroke="rgb(0.0%,0.0%,100.0%)">
 <g fill="rgb(0.0%,0.0%,100.0%)">
 <path d=" M  0.0 112.00592 L  0.81398 112.01154 L  1.62796 112.01746 L  2.44196 112.02367 L  3.25594 112.03021 L  4.06992 112.0371 L  4.88391 112.04433 L  5.69789 112.05193 L  6.51187 112.05992 L  7.32587 112.06833 L  8.13985 112.07716 L  8.95383 112.08646 L  9.76782 112.09624 L  10.5818 112.10652 L  11.39578 112.11732 L  12.20978 112.1287 L  13.02376 112.14064 L  13.83774 112.15321 L  14.65173 112.16643 L  15.46571 112.18033 L  16.2797 112.19495 L  17.09369 112.2103 L  17.90767 112.22646 L  18.72165 112.24345 L  19.53564 112.26132 L  20.34962 112.2801 L  21.1636 112.29985 L  21.9776 112.32063 L  22.79158 112.34247 L  23.60556 112.36545 L  24.41956 112.38959 L  25.23354 112.415 L  26.04752 112.44171 L  26.86151 112.46979 L  27.67549 112.49931 L  28.48947 112.53036 L  29.30347 112.56302 L  30.11745 112.59735 L  30.93143 112.63345 L  31.74542 112.67142 L  32.5594 112.71133 L  33.37338 112.75331 L  34.18738 112.79747 L  35.00136 112.84387 L  35.81534 112.89268 L  36.62933 112.944 L  37.44331 112.99797 L  38.2573 113.05472 L  39.07129 113.1144 L  39.88527 113.17715 L  40.69925 113.24313 L  41.51324 113.31252 L  42.32722 113.38547 L  43.1412 113.46219 L  43.9552 113.5429 L  44.76918 113.62695 L  45.58316 113.71622 L  46.39716 113.81017 L  47.21114 113.90898 L  48.02512 114.01282 L  48.83911 114.12134 L  49.65309 114.23619 L  50.46707 114.35785 L  51.28107 114.48419 L  52.09505 114.61719 L  52.90903 114.75812 L  53.72302 114.90536 L  54.537 115.06104 L  55.35098 115.22302 L  56.16498 115.39473 L  56.97896 115.57469 L  57.79294 115.76422 L  58.60693 115.96346 L  59.42091 116.17404 L  60.2349 116.39452 L  61.04889 116.62616 L  61.86287 116.86914 L  62.67685 117.12701 L  63.49084 117.39592 L  64.30482 117.6794 L  65.1188 117.97745 L  65.9328 118.29008 L  66.74678 118.62086 L  67.56076 118.9659 L  68.37476 119.33054 L  69.18874 119.71428 L  70.00273 120.11633 L  70.81671 120.54074 L  71.63069 120.98637 L  72.44469 121.45467 L  73.25867 121.94711 L  74.07266 122.46564 L  74.88664 123.01024 L  75.70062 123.58205 L  76.51462 124.1848 L  77.3286 124.81818 L  78.1426 125.4841 L  78.95657 126.18405 L  79.77055 126.91963 L  80.58455 127.69426 L  81.39853 128.50533 L  82.21252 129.36111 L  83.0265 130.26094 L  83.84048 131.2076 L  84.65448 132.20253 L  85.46846 133.24881 L  86.28246 134.34918 L  87.09644 135.50577 L  87.91042 136.72311 L  88.72441 138.00217 L  89.53839 139.34763 L  90.35239 140.76161 L  91.16637 142.24931 L  91.98035 143.81346 L  92.79434 145.4586 L  93.60832 147.18814 L  94.42232 149.0071 L  95.2363 150.9187 L  96.05028 152.92993 L  96.86427 155.04485 L  97.67825 157.2686 L  98.49225 159.60608 L  99.30623 162.06473 L  100.12021 164.6502 L  100.9342 167.369 L  101.74818 170.22888 L  102.56216 173.23343 L  103.37616 176.39478 L  104.19014 179.71811 L  105.00412 183.21428 L  105.81812 186.8896 L  106.6321 190.7543 L  107.44608 194.81807 L  108.26007 199.08968 L  109.07405 203.58434 L  109.88803 208.30887 L  110.70203 213.2788 L  111.516 218.50256 L  112.32999 223.99684 L  113.14398 229.77315 L  113.95796 235.84718 L  114.77194 242.23677 L  115.58594 248.95488 L  116.39992 256.01541 L  117.2139 263.44302 L  118.0279 271.25098  " style="fill:none"/>
 </g>
 </g>
 </g>
 </g>
 <g>
 <g stroke-width="0.8pt">
 <g stroke="rgb(0.0%,0.0%,100.0%)">
 <g fill="rgb(0.0%,0.0%,100.0%)">
 <g stroke-dasharray="3.0pt,3.0pt" stroke-dashoffset="0.0pt">
 <path d=" M  81.00984 0.0 L  81.41676 52.8516 L  81.82368 63.76678 L  82.2306 70.22684 L  82.63753 74.8357 L  83.04445 78.41837 L  83.45137 81.35017 L  83.85828 83.83101 L  84.2652 85.98383 L  84.67212 87.88264 L  85.07904 89.58253 L  85.48596 91.12012 L  85.89288 92.52438 L  86.2998 93.81737 L  86.70673 95.01445 L  87.11365 96.12796 L  87.52057 97.17165 L  87.92749 98.15102 L  88.33441 99.07515 L  88.74133 99.9494 L  89.14825 100.77846 L  89.55516 101.56717 L  89.96208 102.3196 L  90.369 103.03784 L  90.77592 103.72565 L  91.18285 104.3864 L  91.58977 105.02089 L  91.99669 105.63094 L  92.40361 106.21912 L  92.81053 106.78607 L  93.21745 107.33424 L  93.62437 107.86491 L  94.0313 108.38002 L  94.43822 108.87733 L  94.84512 109.36053 L  95.25204 109.82965 L  95.65897 110.28548 L  96.06589 110.72884 L  96.47281 111.1607 L  96.87973 111.5809 L  97.28665 111.9904 L  97.69357 112.39018 L  98.1005 112.77992 L  98.5074 113.16075 L  98.91432 113.533 L  99.32124 113.89667 L  99.72816 114.2524 L  100.13509 114.60017 L  100.54199 114.94116 L  100.94891 115.27486 L  101.35583 115.60207 L  101.76276 115.9228 L  102.16968 116.23657 L  102.5766 116.54468 L  102.9835 116.8471 L  103.39043 117.14452 L  103.79735 117.43593 L  104.20427 117.72232 L  104.61119 118.00418 L  105.0181 118.28053 L  105.42502 118.55283 L  105.83194 118.81963 L  106.23886 119.08302 L  106.64578 119.3422 L  107.05269 119.59749 L  107.45961 119.84857 L  107.86653 120.09479 L  108.27345 120.33794 L  108.68037 120.57864 L  109.08728 120.81548 L  109.4942 121.0484 L  109.90112 121.27681 L  110.30804 121.50343 L  110.71497 121.72632 L  111.12187 121.9476 L  111.5288 122.16466 L  111.93571 122.37735 L  112.34264 122.58923 L  112.74956 122.79965 L  113.15648 123.00522 L  113.56339 123.21045 L  113.9703 123.41132 L  114.37723 123.61023 L  114.78415 123.80656 L  115.19107 124.00014 L  115.59798 124.1916 L  116.0049 124.38145 L  116.41182 124.56839 L  116.81874 124.75371 L  117.22566 124.93675 L  117.63257 125.11737 L  118.03949 125.29652 L  118.44641 125.47342 L  118.85333 125.6482 L  119.26025 125.82169 L  119.66716 125.9929 L  120.07408 126.16267 L  120.481 126.33017 L  120.88792 126.49652 L  121.29485 126.66061 L  121.70175 126.82326 L  122.10867 126.98476 L  122.5156 127.14366 L  122.92252 127.30225 L  123.32944 127.45857 L  123.73636 127.61295 L  124.14326 127.76666 L  124.55019 127.91878 L  124.9571 128.06926 L  125.36403 128.21861 L  125.77095 128.36618 L  126.17786 128.51326 L  126.58478 128.65825 L  126.9917 128.80193 L  127.39862 128.9448 L  127.80554 129.08589 L  128.21245 129.22682 L  128.61937 129.36516 L  129.02629 129.50285 L  129.43321 129.6399 L  129.84013 129.77498 L  130.24704 129.90993 L  130.65396 130.04276 L  131.06088 130.17445 L  131.4678 130.30598 L  131.87473 130.43605 L  132.28165 130.565 L  132.68855 130.69296 L  133.09547 130.81964 L  133.5024 130.94649 L  133.90932 131.0704 L  134.31624 131.19594 L  134.72314 131.3184 L  135.13007 131.43973 L  135.53699 131.56203 L  135.94391 131.68175 L  136.35083 131.8029 L  136.75774 131.92084 L  137.16466 132.03763 L  137.57158 132.15587 L  137.9785 132.27072 L  138.38542 132.38719 L  138.79233 132.50107 L  139.19925 132.61365 L  139.60617 132.7272 L  140.01309 132.83849 L  140.42001 132.95091 L  140.82692 133.06139 L  141.23384 133.16975 L  141.64076 133.28023 L  142.04768 133.38763 L  142.4546 133.49615 L  142.86153 133.60275 L  143.26843 133.7074 L  143.67535 133.81511 L  144.08228 133.91846 L  144.4892 134.02116 L  144.89612 134.12596 L  145.30302 134.22786 L  145.70995 134.3317 L  146.11687 134.43471 L  146.52379 134.53531 L  146.93071 134.63574 L  147.33762 134.73537 L  147.74454 134.8345 L  148.15146 134.93283 L  148.55838 135.03067 L  148.9653 135.12785 L  149.37221 135.22456 L  149.77913 135.32062 L  150.18605 135.4162 L  150.59297 135.51096 L  150.9999 135.60556 L  151.4068 135.69951 L  151.81372 135.79298 L  152.22064 135.88547 L  152.62756 135.9778 L  153.03448 136.06981 L  153.4414 136.16101 L  153.84831 136.25172 L  154.25523 136.34227 L  154.66216 136.43169 L  155.06908 136.52095 L  155.476 136.60956 L  155.8829 136.69736 L  156.28983 136.78563 L  156.69675 136.87311 L  157.10367 136.9601 L  157.51059 137.04611 L  157.9175 137.13213 L  158.32442 137.21765 L  158.73134 137.30237 L  159.13826 137.38725 L  159.54518 137.47133 L  159.95209 137.55475 L  160.35901 137.63866 L  160.76593 137.72112 L  161.17285 137.80373 L  161.57977 137.88521 L  161.98668 137.96733  " style="fill:none"/>
 </g>
 </g>
 </g>
 </g>
 </g>
 </g>
 </g>
 <g>
 <g fill="rgb(100.0%,100.0%,100.0%)">
 <g stroke="rgb(0.0%,0.0%,0.0%)">
 <g>
 <g fill="rgb(100.0%,100.0%,100.0%)">
 <g stroke="rgb(0.0%,0.0%,0.0%)">
 <path d=" M  129.13124 160.86288 h  45.25366 v  28.5871 h  -45.25366 Z  " />
 </g>
 </g>
 </g>
 <g>
 <g transform="matrix(1.0,0.0,0.0,1.0,132.13124,169.08507)">
 <g fill="rgb(0.0%,0.0%,0.0%)">
 <text style="stroke:none" transform="scale(1,-1) translate(19.62683,0)" text-anchor="middle"  font-size="10"> 
<g>
 <g fill="rgb(0.0%,0.0%,0.0%)">
 <g>
 <g stroke-width="0.8pt">
 <g stroke="rgb(0.0%,0.0%,100.0%)">
 <g fill="rgb(0.0%,0.0%,100.0%)">
 <path d=" M  0.0 0.0 L  8.5359 0.0 L  17.07182 0.0  " style="fill:none"/>
 </g>
 </g>
 </g>
 </g>
 </g>
 </g>
    <g>
 <g>
 <g>
 <g transform="matrix(1.0,0.0,0.0,1.0,-4.84549,-2.57143)">
 <g fill="rgb(0.0%,0.0%,0.0%)">
 <text style="stroke:none" transform="scale(1,-1) translate(4.84549,0)" text-anchor="middle"  font-size="10"> 
e<tspan baseline-shift="sub">x</tspan></text> 
</g>
 </g>
 </g>
 </g>
 </g>
 
<g>
 <g fill="rgb(0.0%,0.0%,0.0%)">
 <g>
 <g stroke-width="0.8pt">
 <g stroke="rgb(0.0%,0.0%,100.0%)">
 <g fill="rgb(0.0%,0.0%,100.0%)">
 <g stroke-dasharray="3.0pt,3.0pt" stroke-dashoffset="0.0pt">
 <path d=" M  0.0 0.0 L  8.5359 0.0 L  17.07182 0.0  " style="fill:none"/>
 </g>
 </g>
 </g>
 </g>
 </g>
 </g>
 </g>
          <g>
 <g>
 <g>
 <g transform="matrix(1.0,0.0,0.0,1.0,-8.69093,-2.72224)">
 <g fill="rgb(0.0%,0.0%,0.0%)">
 <text style="stroke:none" transform="scale(1,-1) translate(8.69093,0)" text-anchor="middle"  font-size="10"> 
 lnx</text> 
</g>
 </g>
 </g>
 </g>
 </g>
 </text> 
</g>
 </g>
 </g>
 </g>
 </g>
 </g>
 </g>
 </g>
 </g>
 </g>
 </g>
                                    </g> 
</svg> 
