<?xml version="1.0" encoding="iso-8859-1" standalone="no"?> 
<?xml-stylesheet href="limgrafieken.css" type="text/css"?> 
<svg xmlns="http://www.w3.org/2000/svg" xmlns:xlink="http://www.w3.org/1999/xlink" width="212.16179pt" height="162.3873pt" viewBox="-28.14278 -0.2 212.16179 162.3873 "> 
<g transform="translate(0, 162.1873 ) scale(1,-1) translate(0,0.2 )"> 
       <g>
 <g stroke="rgb(0.0%,0.0%,0.0%)">
 <g fill="rgb(0.0%,0.0%,0.0%)">
 <g stroke-width="0.4pt">
 <g>
 </g>
 <g>
 <g>
 <g>
 <g>
 <g stroke-width="0.2pt">
 <g stroke="rgb(50.0%,50.0%,50.0%)">
 <g fill="rgb(50.0%,50.0%,50.0%)">
 <path d=" M  -16.19873 78.85982 L  -16.19873 83.12747 M  16.19873 78.85982 L  16.19873 83.12747 M  48.59619 78.85982 L  48.59619 83.12747 M  113.39111 78.85982 L  113.39111 83.12747 M  145.78857 78.85982 L  145.78857 83.12747 M  178.18604 78.85982 L  178.18604 83.12747  " style="fill:none"/>
 </g>
 </g>
 </g>
 </g>
 </g>
 <g>
 <g>
 <g stroke-width="0.2pt">
 <g stroke="rgb(50.0%,50.0%,50.0%)">
 <g fill="rgb(50.0%,50.0%,50.0%)">
 <path d=" M  78.85982 16.19873 L  83.12747 16.19873 M  78.85982 48.59619 L  83.12747 48.59619 M  78.85982 113.39111 L  83.12747 113.39111 M  78.85982 145.78857 L  83.12747 145.78857  " style="fill:none"/>
 </g>
 </g>
 </g>
 </g>
 </g>
 <path d=" M  -16.50084 80.99365 L  176.48396 80.99365  " style="fill:none"/>
 <g>
 <g transform="matrix(1.0,0.0,0.0,1.0,176.48396,80.99365)">
 <g>
 <path d=" M  1.99997 0.0 L  -1.19998 1.59998 L  0.0 0.0 L  -1.19998 -1.59998  " style="stroke:none"/>
 </g>
  </g>
 </g>
 <path d=" M  80.99365 0.0 L  80.99365 159.98734  " style="fill:none"/>
 <g>
 <g transform="matrix(0.0,1.0,-1.0,0.0,80.99365,159.98734)">
 <g>
 <path d=" M  1.99997 0.0 L  -1.19998 1.59998 L  0.0 0.0 L  -1.19998 -1.59998  " style="stroke:none"/>
 </g>
  </g>
 </g>
 <g>
 <g>
 <g transform="matrix(1.0,0.0,0.0,1.0,-24.8098,68.8824)">
 <g fill="rgb(0.0%,0.0%,0.0%)">
 <text style="stroke:none" transform="scale(1,-1) translate(8.61107,0)" text-anchor="middle"  font-size="10"> 
 − 6</text> 
</g>
 </g>
 </g>
 </g>
 <g>
 <g>
 <g transform="matrix(1.0,0.0,0.0,1.0,7.58766,68.8824)">
 <g fill="rgb(0.0%,0.0%,0.0%)">
 <text style="stroke:none" transform="scale(1,-1) translate(8.61107,0)" text-anchor="middle"  font-size="10"> 
 − 4</text> 
</g>
 </g>
 </g>
 </g>
 <g>
 <g>
 <g transform="matrix(1.0,0.0,0.0,1.0,39.98512,68.8824)">
 <g fill="rgb(0.0%,0.0%,0.0%)">
 <text style="stroke:none" transform="scale(1,-1) translate(8.61107,0)" text-anchor="middle"  font-size="10"> 
 − 2</text> 
</g>
 </g>
 </g>
 </g>
 <g>
 <g>
 <g transform="matrix(1.0,0.0,0.0,1.0,110.89111,68.88242)">
 <g fill="rgb(0.0%,0.0%,0.0%)">
 <text style="stroke:none" transform="scale(1,-1) translate(2.5,0)" text-anchor="middle"  font-size="10"> 
2</text> 
</g>
 </g>
 </g>
 </g>
 <g>
 <g>
 <g transform="matrix(1.0,0.0,0.0,1.0,143.28857,68.88242)">
 <g fill="rgb(0.0%,0.0%,0.0%)">
 <text style="stroke:none" transform="scale(1,-1) translate(2.5,0)" text-anchor="middle"  font-size="10"> 
4</text> 
</g>
 </g>
 </g>
 </g>
 <g>
 <g>
 <g transform="matrix(1.0,0.0,0.0,1.0,175.68604,68.88242)">
 <g fill="rgb(0.0%,0.0%,0.0%)">
 <text style="stroke:none" transform="scale(1,-1) translate(2.5,0)" text-anchor="middle"  font-size="10"> 
6</text> 
</g>
 </g>
 </g>
 </g>
 <g>
 <g>
 <g transform="matrix(1.0,0.0,0.0,1.0,58.1047,13.39317)">
 <g fill="rgb(0.0%,0.0%,0.0%)">
 <text style="stroke:none" transform="scale(1,-1) translate(8.61107,0)" text-anchor="middle"  font-size="10"> 
 − 4</text> 
</g>
 </g>
 </g>
 </g>
 <g>
 <g>
 <g transform="matrix(1.0,0.0,0.0,1.0,58.1047,45.79063)">
 <g fill="rgb(0.0%,0.0%,0.0%)">
 <text style="stroke:none" transform="scale(1,-1) translate(8.61107,0)" text-anchor="middle"  font-size="10"> 
 − 2</text> 
</g>
 </g>
 </g>
 </g>
 <g>
 <g>
 <g transform="matrix(1.0,0.0,0.0,1.0,70.32684,110.1689)">
 <g fill="rgb(0.0%,0.0%,0.0%)">
 <text style="stroke:none" transform="scale(1,-1) translate(2.5,0)" text-anchor="middle"  font-size="10"> 
2</text> 
</g>
 </g>
 </g>
 </g>
 <g>
 <g>
 <g transform="matrix(1.0,0.0,0.0,1.0,70.32684,142.56636)">
 <g fill="rgb(0.0%,0.0%,0.0%)">
 <text style="stroke:none" transform="scale(1,-1) translate(2.5,0)" text-anchor="middle"  font-size="10"> 
4</text> 
</g>
 </g>
 </g>
 </g>
 <g>
 <g>
 <g>
 <g stroke-width="0.2pt">
 <g stroke="rgb(50.0%,50.0%,50.0%)">
 <g fill="rgb(50.0%,50.0%,50.0%)">
 <path d=" M  78.85982 80.99365 L  83.12747 80.99365  " style="fill:none"/>
 </g>
 </g>
 </g>
 </g>
 </g>
 <g>
 <g>
 <g transform="matrix(1.0,0.0,0.0,1.0,70.32684,77.77144)">
 <g fill="rgb(0.0%,0.0%,0.0%)">
 <text style="stroke:none" transform="scale(1,-1) translate(2.5,0)" text-anchor="middle"  font-size="10"> 
0</text> 
</g>
 </g>
 </g>
 </g>
 </g>
 <clipPath id="pgfcp2"> <path d=" M  -16.50084 0.0 L  178.48393 0.0 L  178.48393 161.9873 L  -16.50084 161.9873 Z  "/>
</clipPath>
 <g clip-path="url(#pgfcp2)">
 <g>
 <g stroke="rgb(0.0%,0.0%,100.0%)">
 <g fill="rgb(0.0%,0.0%,100.0%)">
 <path d=" M  0.0 81.6416 L  0.81398 81.65482 L  1.62796 81.66846 L  2.44196 81.68251 L  3.25594 81.69699 L  4.06992 81.71196 L  4.88391 81.7274 L  5.69789 81.74333 L  6.51187 81.75984 L  7.32587 81.77686 L  8.13985 81.79446 L  8.95383 81.81268 L  9.76782 81.8315 L  10.5818 81.851 L  11.39578 81.87117 L  12.20978 81.89203 L  13.02376 81.9137 L  13.83774 81.93613 L  14.65173 81.9594 L  15.46571 81.98352 L  16.2797 82.00859 L  17.09369 82.0346 L  17.90767 82.06166 L  18.72165 82.08977 L  19.53564 82.119 L  20.34962 82.14941 L  21.1636 82.18106 L  21.9776 82.21404 L  22.79158 82.2484 L  23.60556 82.28427 L  24.41956 82.32166 L  25.23354 82.3607 L  26.04752 82.40152 L  26.86151 82.44421 L  27.67549 82.48878 L  28.48947 82.53554 L  29.30347 82.58447 L  30.11745 82.63588 L  30.93143 82.68948 L  31.74542 82.74602 L  32.5594 82.80547 L  33.37338 82.86784 L  34.18738 82.93376 L  35.00136 83.0031 L  35.81534 83.07616 L  36.62933 83.15326 L  37.44331 83.23474 L  38.2573 83.32108 L  39.07129 83.41211 L  39.88527 83.50882 L  40.69925 83.61136 L  41.51324 83.7207 L  42.32722 83.83652 L  43.1412 83.96028 L  43.9552 84.09198 L  44.76918 84.23291 L  45.58316 84.38339 L  46.39716 84.54472 L  47.21114 84.71806 L  48.02512 84.90417 L  48.83911 85.10455 L  49.65309 85.32114 L  50.46707 85.55504 L  51.28107 85.8084 L  52.09505 86.08328 L  52.90903 86.38248 L  53.72302 86.70905 L  54.537 87.06622 L  55.35098 87.45792 L  56.16498 87.88847 L  56.97896 88.36407 L  57.79294 88.89005 L  58.60693 89.47481 L  59.42091 90.12697 L  60.2349 90.85738 L  61.04889 91.67897 L  61.86287 92.60748 L  62.67685 93.66267 L  63.49084 94.8685 L  64.30482 96.25479 L  65.1188 97.86139 L  65.9328 99.73233 L  66.74678 101.93375 L  67.56076 104.54984 L  68.37476 107.68591 L  69.18874 111.49585 L  70.00273 116.18053 L  70.81671 122.03474 L  71.63069 129.47969 L  72.44469 139.15356 L  73.25867 152.03804 L  74.07266 169.73029 L  74.88664 194.96306 L  75.70062 232.71095 M  86.28246 232.9507 L  87.09644 195.11856 L  87.91042 169.84044 L  88.72441 152.11255 L  89.53839 139.21027 L  90.35239 129.52342 L  91.16637 122.06877 L  91.98035 116.20645 L  92.79434 111.5169 L  93.60832 107.70535 L  94.42232 104.56442 L  95.2363 101.9467 L  96.05028 99.74205 L  96.86427 97.86786 L  97.67825 96.26257 L  98.49225 94.87482 L  99.30623 93.6685 L  100.12021 92.6125 L  100.9342 91.68335 L  101.74818 90.86127 L  102.56216 90.1307 L  103.37616 89.47806 L  104.19014 88.89311 L  105.00412 88.3665 L  105.81812 87.89107 L  106.6321 87.46002 L  107.44608 87.0698 L  108.26007 86.71083 L  109.07405 86.38426 L  109.88803 86.0849 L  110.70203 85.80984 L  111.516 85.55618 L  112.32999 85.32243 L  113.14398 85.10585 L  113.95796 84.90515 L  114.77194 84.71902 L  115.58594 84.5457 L  116.39992 84.38437 L  117.2139 84.23355 L  118.0279 84.09262 L  118.84187 83.96092 L  119.65585 83.83733 L  120.46985 83.72119 L  121.28383 83.61217 L  122.09781 83.50931 L  122.9118 83.41277 L  123.72578 83.32124 L  124.53976 83.23523 L  125.35376 83.15375 L  126.16774 83.07664 L  126.98172 83.00342 L  127.79572 82.93425 L  128.6097 82.86848 L  129.42368 82.80595 L  130.23767 82.74635 L  131.05165 82.68997 L  131.86563 82.6362 L  132.67963 82.58472 L  133.4936 82.53578 L  134.30759 82.48906 L  135.12158 82.44441 L  135.93556 82.40173 L  136.74954 82.36096 L  137.56354 82.32187 L  138.37752 82.28445 L  139.1915 82.2486 L  140.0055 82.21422 L  140.81947 82.18121 L  141.63345 82.14958 L  142.44745 82.11916 L  143.26143 82.08987 L  144.07541 82.06178 L  144.8894 82.03477 L  145.70338 82.00871 L  146.51736 81.98367 L  147.33136 81.95953 L  148.14534 81.93625 L  148.95932 81.9138 L  149.77332 81.89217 L  150.5873 81.87126 L  151.40128 81.85109 L  152.21527 81.83159 L  153.02925 81.81274 L  153.84323 81.79454 L  154.65723 81.77696 L  155.4712 81.75992 L  156.28519 81.74345 L  157.09918 81.7275 L  157.91316 81.71205 L  158.72714 81.69707 L  159.54114 81.68259 L  160.35512 81.66853 L  161.1691 81.65488 L  161.9831 81.64166  " style="fill:none"/>
 </g>
 </g>
 </g>
 </g>
 </g>
 <g>
 <g fill="rgb(100.0%,100.0%,100.0%)">
 <g stroke="rgb(0.0%,0.0%,0.0%)">
 <g>
 <g fill="rgb(100.0%,100.0%,100.0%)">
 <g stroke="rgb(0.0%,0.0%,0.0%)">
 <path d=" M  126.71017 140.9069 h  47.67322 v  17.63995 h  -47.67322 Z  " />
 </g>
 </g>
 </g>
 <g>
 <g transform="matrix(1.0,0.0,0.0,1.0,129.71017,149.72688)">
 <g fill="rgb(0.0%,0.0%,0.0%)">
 <text style="stroke:none" transform="scale(1,-1) translate(20.83661,0)" text-anchor="middle"  font-size="10"> 
<g>
 <g fill="rgb(0.0%,0.0%,0.0%)">
 <g>
 <g stroke="rgb(0.0%,0.0%,100.0%)">
 <g fill="rgb(0.0%,0.0%,100.0%)">
 <path d=" M  0.0 0.0 L  8.5359 0.0 L  17.07182 0.0  " style="fill:none"/>
 </g>
 </g>
 </g>
 </g>
 </g>
     <g>
 <g>
 <g>
 <g transform="matrix(1.0,0.0,0.0,1.0,-10.10071,-3.32004)">
 <g fill="rgb(0.0%,0.0%,0.0%)">
 <text style="stroke:none" transform="scale(1,-1) translate(10.10071,0)" text-anchor="middle"  font-size="10"> 
1∕x<tspan baseline-shift="sub">2</tspan></text> 
</g>
 </g>
 </g>
 </g>
 </g>
 </text> 
</g>
 </g>
 </g>
 </g>
 </g>
 </g>
 </g>
 </g>
 </g>
 </g>
 </g>
                                                   </g> 
</svg> 
