<?xml version="1.0" encoding="iso-8859-1" standalone="no"?> 
<?xml-stylesheet href="limgrafieken.css" type="text/css"?> 
<svg xmlns="http://www.w3.org/2000/svg" xmlns:xlink="http://www.w3.org/1999/xlink" width="7.33661pt" height="7.33661pt" viewBox="-3.6683 -3.6683 7.33661 7.33661 "> 
<g transform="translate(0, 3.6683 ) scale(1,-1) translate(0,3.6683 )"> 
 <g>
 <g stroke="rgb(0.0%,0.0%,0.0%)">
 <g fill="rgb(0.0%,0.0%,0.0%)">
 <g stroke-width="0.4pt">
 <g>
 </g>
 <g>
 <g stroke-width="0.51663pt">
 <path d=" M  0.0 0.0 M  3.40999 0.0 C  3.40999 1.8833 1.8833 3.40999 0.0 3.40999 C  -1.8833 3.40999 -3.40999 1.8833 -3.40999 0.0 C  -3.40999 -1.8833 -1.8833 -3.40999 0.0 -3.40999 C  1.8833 -3.40999 3.40999 -1.8833 3.40999 0.0 Z M  0.0 0.0  " style="fill:none"/>
 <path d=" M  -1.03339 1.03339 M  -0.5167 1.03339 C  -0.5167 1.31874 -0.74803 1.55008 -1.03339 1.55008 C  -1.31874 1.55008 -1.55008 1.31874 -1.55008 1.03339 C  -1.55008 0.74803 -1.31874 0.5167 -1.03339 0.5167 C  -0.74803 0.5167 -0.5167 0.74803 -0.5167 1.03339 Z M  -1.03339 1.03339  " style="stroke:none"/>
 <path d=" M  1.03339 1.03339 M  1.55008 1.03339 C  1.55008 1.31874 1.31874 1.55008 1.03339 1.55008 C  0.74803 1.55008 0.5167 1.31874 0.5167 1.03339 C  0.5167 0.74803 0.74803 0.5167 1.03339 0.5167 C  1.31874 0.5167 1.55008 0.74803 1.55008 1.03339 Z M  1.03339 1.03339  " style="stroke:none"/>
 <path d=" M  -2.06662 -1.03339 C  -1.03339 -2.06662 1.03339 -2.06662 2.06662 -1.03339  " style="fill:none"/>
 </g>
 </g>
 </g>
 </g>
 </g>
 </g>
  </g> 
</svg> 
